# xmcd
#
# Track frame offsets:
#	150
#	14670
#	34460
#	56115
#	73110
#	92735
#	111492
#	137332
#	155036
#	175931
#	208386
#	225696
#	244303
#	262438
#	289868
#	306143
#	324750
#	337236
#
# Disc length: 4728 seconds
#
# Revision: 1
# Processed by: cddbd v1.4PL0 Copyright (c) Steve Scherf et al.
# Submitted via: EasyCDDAExtractor 5.0.7
#
DISCID=25127612
DTITLE=Robbie Williams - Escapology
DYEAR=1900
DGENRE=
TTITLE0=How Peculiar(Escapology Asian CD Version)
TTITLE1=Feel(Escapology Asian CD Version)
TTITLE2=Something Beautiful(Escapology Asian CD Version)
TTITLE3=Monsoon(Escapology Asian CD Version)
TTITLE4=Sexed Up(Escapology Asian CD Version)
TTITLE5=Love Somebody(Escapology Asian CD Version)
TTITLE6=Revolution(Escapology Asian CD Version)
TTITLE7=Handsome Man(Escapology Asian CD Version)
TTITLE8=Come Undone(Escapology Asian CD Version)
TTITLE9=Me And My Monkey(Escapology Asian CD Version)
TTITLE10=Song 3(Escapology Asian CD Version)
TTITLE11=Hot Fudge(Escapology Asian CD Version)
TTITLE12=Cursed(Escapology Asian CD Version)
TTITLE13=Nan's Song(Escapology Asian CD Version)
TTITLE14=Song 15(Escapology Asian CD Version)
TTITLE15=Supreme(Escapology Asian CD Version)
TTITLE16=Something Stupid(Escapology Asian CD Version)
TTITLE17=The Road To Mandalay(Escapology Asian CD Version)
EXTD=
EXTT0=
EXTT1=
EXTT2=
EXTT3=
EXTT4=
EXTT5=
EXTT6=
EXTT7=
EXTT8=
EXTT9=
EXTT10=
EXTT11=
EXTT12=
EXTT13=
EXTT14=
EXTT15=
EXTT16=
EXTT17=
PLAYORDER=
